<svg xmlns="http://www.w3.org/2000/svg" width="24" height="24" viewBox="0 0 24 24" role="img" aria-labelledby="title description">
  <title id="title">Disk layout</title>
  <desc id="description">Hard drive icon divided into partitions.</desc>
  <style>
    path, rect { fill: #155799; }
    @media (prefers-color-scheme: dark) { path, rect { fill: #9dcbff; } }
  </style>
  <path d="M5 4h14a2 2 0 0 1 2 2v12a2 2 0 0 1-2 2H5a2 2 0 0 1-2-2V6a2 2 0 0 1 2-2zm0 1.5a.5.5 0 0 0-.5.5v12a.5.5 0 0 0 .5.5h14a.5.5 0 0 0 .5-.5V6a.5.5 0 0 0-.5-.5H5z"/>
  <rect x="6" y="8" width="5" height="8" rx="1"/>
  <rect x="13" y="8" width="5" height="3.5" rx="1"/>
  <rect x="13" y="12.5" width="5" height="3.5" rx="1"/>
</svg>